PathFileType	4	(X/Y/Z)	/Users/visionmauri/Downloads/Videos/OAW01-top_Sports2D/OAW01-top_Sports2D_m_person00.trc
DataRate	CameraRate	NumFrames	NumMarkers	Units	OrigDataRate	OrigDataStartFrame	OrigNumFrames
26.0	26.0	11	22	m	26.0	1780	2035
Frame#	Time	Hip			RHip			RKnee			RAnkle			RBigToe			RSmallToe			RHeel			LHip			LKnee			LAnkle			LBigToe			LSmallToe			LHeel			Neck			Head			Nose			RShoulder			RElbow			RWrist			LShoulder			LElbow			LWrist			
		X1	Y1	Z1	X2	Y2	Z2	X3	Y3	Z3	X4	Y4	Z4	X5	Y5	Z5	X6	Y6	Z6	X7	Y7	Z7	X8	Y8	Z8	X9	Y9	Z9	X10	Y10	Z10	X11	Y11	Z11	X12	Y12	Z12	X13	Y13	Z13	X14	Y14	Z14	X15	Y15	Z15	X16	Y16	Z16	X17	Y17	Z17	X18	Y18	Z18	X19	Y19	Z19	X20	Y20	Z20	X21	Y21	Z21	X22	Y22	Z22
1780	68.49519703502006	1.5779388907636405	0.782631638987994	0.0301	1.5302027218332066	0.782816481108122	0.0301	1.5096606639279146	0.5766772634795544	0.129	1.4912236908186944	0.4212436353471978	0.023	1.4924712582188533	0.3449472329691677	0.2179	1.468020108316789	0.35665122312898845	0.1804	1.4883203340143332	0.4069305059707798	-0.0119	1.622569836835924	0.7719936275794091	0.0301	1.5784845183388108	0.5612201715281124	0.129	1.553293601370091	0.36785908294401365	0.023	1.5292625077796425	0.3014265560899405	0.2179	1.5609201059442877	0.30206769937197114	0.1804	1.5465629838563562	0.34834775606965473	-0.0119	1.622632407078724	1.0461683133571726	0.0008	1.6521856698605961	1.1866793740663188	0.0655	1.6351347525506696	1.0899615928966457	0.1076	1.5332566484696737	1.0408370413779973	-0.01275	1.4786079811910084	0.8958220440287085	0.0702	1.446178040320034	0.7800415930918946	0.1076	1.7104737078253829	1.007355388456229	-0.01275	1.7046180548806469	0.8551263528788848	0.0702	1.6904583865429075	0.7314638354979391	0.1076
1781	68.53367748279254	1.5797521474479033	0.7797913993656146	0.0301	1.5315411248935529	0.7798345745397084	0.0301	1.511040361699584	0.5723102810822511	0.129	1.4906495776248812	0.4217658592084989	0.023	1.493964069490549	0.3426893703750088	0.2179	1.4680512796481409	0.3546205584482283	0.1804	1.486649377850304	0.4072743229788574	-0.0119	1.6232387341355157	0.7675087298950894	0.0301	1.577824990486979	0.5573942107292457	0.129	1.5508726214448094	0.3641808148075842	0.023	1.5269606426367468	0.2958182617533663	0.2179	1.5588276418612603	0.2965596401182359	0.1804	1.5445396403813463	0.345042553188429	-0.0119	1.6253110424018289	1.0424235294248951	0.0008	1.655449344290823	1.1867511241870177	0.0655	1.6390496103941818	1.0888543800347563	0.1076	1.53602417590775	1.0390305189998021	-0.01275	1.48211100916583	0.8944633752008164	0.0702	1.4473310541436175	0.7783089134179301	0.1076	1.713838706237304	1.0037981949858807	-0.01275	1.7080568265820615	0.8520436649082368	0.0702	1.6929859034993613	0.7283006971265789	0.1076
1782	68.57215793056501	1.5815777465511869	0.77647301105335	0.0301	1.5325461352730916	0.7770006911473722	0.0301	1.5123914232010889	0.568063633690736	0.129	1.490045508325576	0.4237539185182901	0.023	1.4945708354696743	0.34071543723369885	0.2179	1.4679548756745464	0.3542774400288024	0.1804	1.4856318408704432	0.4105728433165689	-0.0119	1.6247736486417466	0.7634908575653949	0.0301	1.5789274338719532	0.5536730883718727	0.129	1.5477475706798267	0.3575588150945403	0.023	1.5241513868282024	0.28869953742157356	0.2179	1.555746216313083	0.2895516085110134	0.1804	1.542762616938035	0.3383940100044767	-0.0119	1.6279275242630478	1.0408325868617776	0.0008	1.6583931501587654	1.180824068098939	0.0655	1.641238833744107	1.0869175836228828	0.1076	1.538095743901491	1.0387414996244004	-0.01275	1.4847994407468765	0.8920346478001426	0.0702	1.4490009377778004	0.7765456768299356	0.1076	1.7163642006683109	1.0023947768644832	-0.01275	1.7105651335017762	0.8475574638289285	0.0702	1.6957105531402292	0.7235552918792831	0.1076
1783	68.6106383783375	1.5838824237319193	0.7739593136496952	0.0301	1.5340165552297174	0.7754804924205012	0.0301	1.5133306242376545	0.5624152077925203	0.129	1.4902155659979366	0.42524809761770976	0.023	1.4945477860436753	0.34032880178984287	0.2179	1.4673818626964312	0.3552999217244461	0.1804	1.4861482946261313	0.4159880027112827	-0.0119	1.628458901197354	0.7620076090485414	0.0301	1.5808737378624924	0.5497316657179605	0.129	1.5461626676376106	0.35067084223555867	0.023	1.5219108630886569	0.2839323048804277	0.2179	1.553281961971553	0.2847309686561838	0.1804	1.542307665596253	0.33075846608801085	-0.0119	1.632024701295848	1.04264987132829	0.0008	1.6595293533868951	1.172426492505331	0.0655	1.6421765531104542	1.0859198276689381	0.1076	1.540732123696607	1.0392560528104722	-0.01275	1.486820950002939	0.8883959147400929	0.0702	1.4516669748368274	0.7734637459701978	0.1076	1.719395166855464	1.0032089508884305	-0.01275	1.7128181543072731	0.8432786851348724	0.0702	1.6995416333057425	0.7184219164161672	0.1076
1784	68.64911882610998	1.5862910948147653	0.7725017488040564	0.0301	1.5354781008009717	0.7758112906133003	0.0301	1.5147660555429345	0.5579863121134618	0.129	1.4908296144902597	0.4263649528885407	0.023	1.49445895409688	0.3407625319706121	0.2179	1.4667177944537402	0.35583465071066583	0.1804	1.4872448501726905	0.42134417886827413	-0.0119	1.6326925378719568	0.7625356915451899	0.0301	1.5827610117955544	0.5466878353251393	0.129	1.5463141770351438	0.34684429000338435	0.023	1.5213786207190663	0.2828746531116134	0.2179	1.5521488460219315	0.2835282779769372	0.1804	1.5425392095323993	0.3272393254009157	-0.0119	1.6359142370222723	1.0441439210105117	0.0008	1.661116213357641	1.167660112972622	0.0655	1.6440530865599052	1.0845160931893822	0.1076	1.5438962656631972	1.0396658923530004	-0.01275	1.4884665761735216	0.885155024249706	0.0702	1.4544782388281197	0.768978604186964	0.1076	1.7225370589242028	1.0038065503970646	-0.01275	1.7159339749054348	0.8397173554340929	0.0702	1.703856263939735	0.7139874064801744	0.1076
1785	68.68759927388247	1.5883898222864063	0.7709980132692045	0.0301	1.5365291564301202	0.7768180642037218	0.0301	1.5170669419483556	0.5574521212222071	0.129	1.4907113753399375	0.4285929562605386	0.023	1.4934235014950554	0.33972831447353735	0.2179	1.465245521252121	0.3546085086441195	0.1804	1.4879123416216875	0.4262130962651022	-0.0119	1.6353881204747582	0.762825705674873	0.0301	1.5851160647352678	0.5457863023909838	0.129	1.5470947341070727	0.34606193520166734	0.023	1.521622049552748	0.2841891661809462	0.2179	1.5516014417141584	0.2843122336972965	0.1804	1.5431605955074044	0.3283799705827918	-0.0119	1.6374092981313673	1.0437119445385494	0.0008	1.6644448569038763	1.1705068739668543	0.0655	1.646463560316891	1.0833831943769539	0.1076	1.5457889171378771	1.0395264166219882	-0.01275	1.4896957117522818	0.8831168081498493	0.0702	1.456337310005154	0.7639939551080271	0.1076	1.7250394654653602	1.002492039492228	-0.01275	1.7189020938583424	0.8353719005016257	0.0702	1.7071022415929311	0.7090179802744734	0.1076
1786	68.72607972165495	1.5908858501908858	0.7695476177315712	0.0301	1.5385632105002354	0.7774455416289282	0.0301	1.5188692489951285	0.5573701453000665	0.129	1.4904688686661487	0.4318448031917519	0.023	1.4903811753648328	0.3384321011288856	0.2179	1.4624662285842742	0.35434632926930204	0.1804	1.4883396780969982	0.4308382356801495	-0.0119	1.637354998992212	0.762353825935052	0.0301	1.5882684048295133	0.5440877650374809	0.129	1.547914890468732	0.34624592756217687	0.023	1.5211074153713007	0.2850007265305648	0.2179	1.5510558242472938	0.2840452927872315	0.1804	1.5444453553814663	0.3294113686921402	-0.0119	1.6380799187454937	1.04459884688062	0.0008	1.666377458434819	1.1801401991714404	0.0655	1.6475435923121085	1.0862883507752659	0.1076	1.54610789295038	1.0390978198809422	-0.01275	1.4914822108666175	0.8816557657678858	0.0702	1.4577775714829857	0.7588683656036936	0.1076	1.727446358392196	1.000888250983595	-0.01275	1.7214015500598823	0.8314002967511844	0.0702	1.710105726852829	0.7041363648874823	0.1076
1787	68.76456016942744	1.5938127965020652	0.7683073213781138	0.0301	1.5418609294213497	0.777559329208311	0.0301	1.5191457863287041	0.5544922204630452	0.129	1.4911595061242837	0.4338557089393902	0.023	1.4859169551342695	0.33838925090329613	0.2179	1.4598110243676647	0.356464691122261	0.1804	1.4893692501566842	0.432985118820601	-0.0119	1.6400979813934693	0.761986581102071	0.0301	1.5916489989588902	0.5390287765825355	0.129	1.5486259847279673	0.34615786372127894	0.023	1.5201710020557448	0.2837556362230229	0.2179	1.550627709542128	0.28187086058381544	0.1804	1.5457020247245816	0.32790676901243326	-0.0119	1.6404840617936194	1.0471770716146886	0.0008	1.6655009343149865	1.190588014507067	0.0655	1.6478534236130677	1.0909130503849327	0.1076	1.5466953667975787	1.039308919424292	-0.01275	1.4945033048011414	0.8805822299950441	0.0702	1.4600916061362517	0.7542962194321977	0.1076	1.7301171222722385	1.000480414469558	-0.01275	1.7244581121684441	0.8302823409342288	0.0702	1.7140687905765595	0.7011098597547102	0.1076
1788	68.80304061719991	1.596007434874421	0.7667846551702509	0.0301	1.5442223321250679	0.776577722078562	0.0301	1.519129970104563	0.5511287509173434	0.129	1.4918637459289936	0.4305130315448218	0.023	1.4818989151660331	0.3359843125390231	0.2179	1.4582696524995087	0.3553603540247941	0.1804	1.491034771323696	0.42720075507125727	-0.0119	1.6425372381233037	0.7606177458391155	0.0301	1.5942825770670257	0.5332171307135717	0.129	1.5491342065252418	0.34626772887437196	0.023	1.5195610822132724	0.2821041685123018	0.2179	1.550357613470836	0.28015961852095544	0.1804	1.5462971460575674	0.3263986743396685	-0.0119	1.643916477383498	1.0488064399860901	0.0008	1.664979839752204	1.1958026588336097	0.0655	1.6490294060089812	1.0924747146525273	0.1076	1.5485420831898349	1.0404748497008638	-0.01275	1.4972524122406667	0.879974893121484	0.0702	1.4628127761953265	0.7513709650981488	0.1076	1.7325482035036057	1.0009295401742955	-0.01275	1.7281175227377021	0.8316653258158254	0.0702	1.7178263298959604	0.7000178682213967	0.1076
1789	68.8415210649724	1.5967105611962522	0.7649993108521359	0.0301	1.5446155405901842	0.7740809273144565	0.0301	1.5201483799434994	0.5496656127332696	0.129	1.4916475797960815	0.41941803836896835	0.023	1.479093517971567	0.328033418228727	0.2179	1.4568560086307625	0.3465839293674055	0.1804	1.492070812491166	0.41072423263508123	-0.0119	1.642776710656149	0.7566322036260554	0.0301	1.595470712871576	0.5301594904199239	0.129	1.549659828502255	0.3474521391587272	0.023	1.5191635539675243	0.2814116051498442	0.2179	1.5501234288816075	0.2803334788597149	0.1804	1.546473823874073	0.32725032057997144	-0.0119	1.6465430794282985	1.0493786461522179	0.0008	1.6673147897596778	1.1947821518854371	0.0655	1.651192546279819	1.091571351401364	0.1076	1.5507959557689757	1.0413928954892944	-0.01275	1.4984581475830192	0.8795217644047773	0.0702	1.464403378067912	0.7501779065039251	0.1076	1.7352280822244395	1.0014170060059708	-0.01275	1.731409354330501	0.8330601358484552	0.0702	1.7198501156774022	0.7001284768598981	0.1076
1790	68.88000151274488	1.5963252622537147	0.7640155134497676	0.0301	1.5446611229539338	0.771800663446291	0.0301	1.521296406660382	0.5491624416812857	0.129	1.490880113618712	0.40291469574350125	0.023	1.4769249920113876	0.315978241779836	0.2179	1.4549566280805544	0.3327144801734751	0.1804	1.4914991486793259	0.3888375140082305	-0.0119	1.6415896872133848	0.7526365814380924	0.0301	1.5959392022301486	0.5299446326351281	0.129	1.5503521547547343	0.3487896501619659	0.023	1.5193345468301762	0.28036224902189844	0.2179	1.5500818332051147	0.2804942080794103	0.1804	1.5465056449290349	0.32954023170543134	-0.0119	1.6481700531617667	1.047953666709414	0.0008	1.670737377554982	1.1916708309469048	0.0655	1.653171998805581	1.0900000896925843	0.1076	1.5523393205070126	1.0407977508759487	-0.01275	1.4988767008959656	0.8791504905318293	0.0702	1.4646019404324049	0.7494815527411284	0.1076	1.7388350554528973	1.0006221212427453	-0.01275	1.733671428612176	0.833043034590566	0.0702	1.7206065691915622	0.7013750108827442	0.1076
